<mxfile host="app.diagrams.net" modified="2021-01-30T20:33:14.160Z" agent="5.0 (Macintosh; Intel Mac OS X 11_1_0) AppleWebKit/537.36 (KHTML, like Gecko) Chrome/88.0.4324.96 Safari/537.36" etag="CB0LYOsSOITQcrPUU2CF" version="14.2.9" type="github">
  <diagram id="zPetkQdzfuMZDfUDlJgj" name="Page-1">
    <mxGraphModel dx="1833" dy="1011" grid="1" gridSize="10" guides="1" tooltips="1" connect="1" arrows="1" fold="1" page="1" pageScale="1" pageWidth="827" pageHeight="1169" math="0" shadow="0">
      <root>
        <mxCell id="0" />
        <mxCell id="1" parent="0" />
        <mxCell id="mUMAqcUNLRB6e2JIgrr5-1" value="" style="ellipse;whiteSpace=wrap;html=1;fillColor=#33001A;" vertex="1" parent="1">
          <mxGeometry x="330" y="200" width="120" height="80" as="geometry" />
        </mxCell>
        <mxCell id="mUMAqcUNLRB6e2JIgrr5-2" value="" style="endArrow=classic;html=1;exitX=0.5;exitY=1;exitDx=0;exitDy=0;" edge="1" parent="1" source="mUMAqcUNLRB6e2JIgrr5-1">
          <mxGeometry width="50" height="50" relative="1" as="geometry">
            <mxPoint x="390" y="540" as="sourcePoint" />
            <mxPoint x="200" y="360" as="targetPoint" />
          </mxGeometry>
        </mxCell>
        <mxCell id="mUMAqcUNLRB6e2JIgrr5-3" value="" style="ellipse;whiteSpace=wrap;html=1;fillColor=#33001A;" vertex="1" parent="1">
          <mxGeometry x="140" y="360" width="120" height="80" as="geometry" />
        </mxCell>
        <mxCell id="mUMAqcUNLRB6e2JIgrr5-4" value="" style="endArrow=classic;html=1;exitX=0.5;exitY=1;exitDx=0;exitDy=0;" edge="1" parent="1" source="mUMAqcUNLRB6e2JIgrr5-1">
          <mxGeometry width="50" height="50" relative="1" as="geometry">
            <mxPoint x="430" y="280" as="sourcePoint" />
            <mxPoint x="640" y="360" as="targetPoint" />
          </mxGeometry>
        </mxCell>
        <mxCell id="mUMAqcUNLRB6e2JIgrr5-5" value="" style="ellipse;whiteSpace=wrap;html=1;fillColor=#33001A;" vertex="1" parent="1">
          <mxGeometry x="580" y="360" width="120" height="80" as="geometry" />
        </mxCell>
        <mxCell id="mUMAqcUNLRB6e2JIgrr5-6" value="Move block 4 one position to the left" style="text;html=1;resizable=0;autosize=1;align=center;verticalAlign=middle;points=[];fillColor=none;strokeColor=none;rounded=0;" vertex="1" parent="1">
          <mxGeometry x="80" y="300" width="210" height="20" as="geometry" />
        </mxCell>
        <mxCell id="mUMAqcUNLRB6e2JIgrr5-7" value="Move block 4 two positions to the left" style="text;html=1;resizable=0;autosize=1;align=center;verticalAlign=middle;points=[];fillColor=none;strokeColor=none;rounded=0;" vertex="1" parent="1">
          <mxGeometry x="510" y="300" width="210" height="20" as="geometry" />
        </mxCell>
        <mxCell id="mUMAqcUNLRB6e2JIgrr5-8" value="" style="ellipse;whiteSpace=wrap;html=1;fillColor=#33001A;" vertex="1" parent="1">
          <mxGeometry x="30" y="530" width="120" height="80" as="geometry" />
        </mxCell>
        <mxCell id="mUMAqcUNLRB6e2JIgrr5-9" value="" style="endArrow=classic;html=1;exitX=0.5;exitY=1;exitDx=0;exitDy=0;entryX=0.5;entryY=0;entryDx=0;entryDy=0;" edge="1" parent="1" source="mUMAqcUNLRB6e2JIgrr5-3" target="mUMAqcUNLRB6e2JIgrr5-8">
          <mxGeometry width="50" height="50" relative="1" as="geometry">
            <mxPoint x="390" y="410" as="sourcePoint" />
            <mxPoint x="440" y="360" as="targetPoint" />
          </mxGeometry>
        </mxCell>
        <mxCell id="mUMAqcUNLRB6e2JIgrr5-10" value="move block 5 one position to the left" style="text;html=1;resizable=0;autosize=1;align=center;verticalAlign=middle;points=[];fillColor=none;strokeColor=none;rounded=0;" vertex="1" parent="1">
          <mxGeometry y="480" width="210" height="20" as="geometry" />
        </mxCell>
        <mxCell id="mUMAqcUNLRB6e2JIgrr5-11" value="" style="ellipse;whiteSpace=wrap;html=1;fillColor=#33001A;" vertex="1" parent="1">
          <mxGeometry x="240" y="530" width="120" height="80" as="geometry" />
        </mxCell>
        <mxCell id="mUMAqcUNLRB6e2JIgrr5-12" value="" style="endArrow=classic;html=1;exitX=0.5;exitY=1;exitDx=0;exitDy=0;entryX=0.5;entryY=0;entryDx=0;entryDy=0;" edge="1" parent="1" target="mUMAqcUNLRB6e2JIgrr5-11" source="mUMAqcUNLRB6e2JIgrr5-3">
          <mxGeometry width="50" height="50" relative="1" as="geometry">
            <mxPoint x="410" y="440" as="sourcePoint" />
            <mxPoint x="650" y="360" as="targetPoint" />
          </mxGeometry>
        </mxCell>
        <mxCell id="mUMAqcUNLRB6e2JIgrr5-13" value="move block 4 one position to the left" style="text;html=1;resizable=0;autosize=1;align=center;verticalAlign=middle;points=[];fillColor=none;strokeColor=none;rounded=0;" vertex="1" parent="1">
          <mxGeometry x="210" y="480" width="210" height="20" as="geometry" />
        </mxCell>
        <mxCell id="mUMAqcUNLRB6e2JIgrr5-14" value="" style="ellipse;whiteSpace=wrap;html=1;fillColor=#33001A;" vertex="1" parent="1">
          <mxGeometry x="440" y="520" width="120" height="80" as="geometry" />
        </mxCell>
        <mxCell id="mUMAqcUNLRB6e2JIgrr5-15" value="" style="ellipse;whiteSpace=wrap;html=1;fillColor=#33001A;" vertex="1" parent="1">
          <mxGeometry x="580" y="520" width="120" height="80" as="geometry" />
        </mxCell>
        <mxCell id="mUMAqcUNLRB6e2JIgrr5-16" value="" style="ellipse;whiteSpace=wrap;html=1;fillColor=#33001A;" vertex="1" parent="1">
          <mxGeometry x="730" y="520" width="120" height="80" as="geometry" />
        </mxCell>
        <mxCell id="mUMAqcUNLRB6e2JIgrr5-17" value="" style="endArrow=classic;html=1;entryX=0.5;entryY=0;entryDx=0;entryDy=0;" edge="1" parent="1" target="mUMAqcUNLRB6e2JIgrr5-14">
          <mxGeometry width="50" height="50" relative="1" as="geometry">
            <mxPoint x="640" y="440" as="sourcePoint" />
            <mxPoint x="440" y="360" as="targetPoint" />
          </mxGeometry>
        </mxCell>
        <mxCell id="mUMAqcUNLRB6e2JIgrr5-18" value="" style="endArrow=classic;html=1;entryX=0.5;entryY=0;entryDx=0;entryDy=0;" edge="1" parent="1" source="mUMAqcUNLRB6e2JIgrr5-5" target="mUMAqcUNLRB6e2JIgrr5-15">
          <mxGeometry width="50" height="50" relative="1" as="geometry">
            <mxPoint x="640" y="450" as="sourcePoint" />
            <mxPoint x="510" y="530" as="targetPoint" />
          </mxGeometry>
        </mxCell>
        <mxCell id="mUMAqcUNLRB6e2JIgrr5-19" value="" style="endArrow=classic;html=1;entryX=0.5;entryY=0;entryDx=0;entryDy=0;exitX=0.5;exitY=1;exitDx=0;exitDy=0;" edge="1" parent="1" source="mUMAqcUNLRB6e2JIgrr5-5" target="mUMAqcUNLRB6e2JIgrr5-16">
          <mxGeometry width="50" height="50" relative="1" as="geometry">
            <mxPoint x="660" y="460" as="sourcePoint" />
            <mxPoint x="520" y="540" as="targetPoint" />
          </mxGeometry>
        </mxCell>
        <mxCell id="mUMAqcUNLRB6e2JIgrr5-20" value="Move block 4 one position to the right" style="text;html=1;resizable=0;autosize=1;align=center;verticalAlign=middle;points=[];fillColor=none;strokeColor=none;rounded=0;" vertex="1" parent="1">
          <mxGeometry x="420" y="480" width="210" height="20" as="geometry" />
        </mxCell>
        <mxCell id="mUMAqcUNLRB6e2JIgrr5-21" value="Move block 5 two positions to the left" style="text;html=1;resizable=0;autosize=1;align=center;verticalAlign=middle;points=[];fillColor=none;strokeColor=none;rounded=0;" vertex="1" parent="1">
          <mxGeometry x="730" y="470" width="210" height="20" as="geometry" />
        </mxCell>
        <mxCell id="mUMAqcUNLRB6e2JIgrr5-24" value="" style="endArrow=classic;html=1;entryX=0.5;entryY=0;entryDx=0;entryDy=0;exitX=0.5;exitY=1;exitDx=0;exitDy=0;" edge="1" parent="1" source="mUMAqcUNLRB6e2JIgrr5-5">
          <mxGeometry width="50" height="50" relative="1" as="geometry">
            <mxPoint x="640" y="440" as="sourcePoint" />
            <mxPoint x="640" y="430" as="targetPoint" />
          </mxGeometry>
        </mxCell>
        <mxCell id="mUMAqcUNLRB6e2JIgrr5-25" value="Move block 5 one position to the left" style="text;html=1;resizable=0;autosize=1;align=center;verticalAlign=middle;points=[];fillColor=none;strokeColor=none;rounded=0;" vertex="1" parent="1">
          <mxGeometry x="535" y="450" width="210" height="20" as="geometry" />
        </mxCell>
      </root>
    </mxGraphModel>
  </diagram>
</mxfile>
